Coordinates
version=1
nRows=9
nColumns=63
inDegrees=yes

Units are S.I. units (second, meters, Newtons, ...)
If the header above contains a line with 'inDegrees', this indicates whether rotational values are in degrees (yes) or radians (no).

endheader
time	pelvis_tilt	pelvis_list	pelvis_rotation	pelvis_tx	pelvis_ty	pelvis_tz	hip_flexion_r	hip_adduction_r	hip_rotation_r	knee_angle_r	knee_angle_r_beta	ankle_angle_r	subtalar_angle_r	mtp_angle_r	hip_flexion_l	hip_adduction_l	hip_rotation_l	knee_angle_l	knee_angle_l_beta	ankle_angle_l	subtalar_angle_l	mtp_angle_l	L5_S1_Flex_Ext	L5_S1_Lat_Bending	L5_S1_axial_rotation	L4_L5_Flex_Ext	L4_L5_Lat_Bending	L4_L5_axial_rotation	L3_L4_Flex_Ext	L3_L4_Lat_Bending	L3_L4_axial_rotation	L2_L3_Flex_Ext	L2_L3_Lat_Bending	L2_L3_axial_rotation	L1_L2_Flex_Ext	L1_L2_Lat_Bending	L1_L2_axial_rotation	L1_T12_Flex_Ext	L1_T12_Lat_Bending	L1_T12_axial_rotation	Abs_r3	Abs_r2	Abs_r1	Abs_t1	Abs_t2	neck_flexion	neck_bending	neck_rotation	arm_flex_r	arm_add_r	arm_rot_r	elbow_flex_r	pro_sup_r	wrist_flex_r	wrist_dev_r	arm_flex_l	arm_add_l	arm_rot_l	elbow_flex_l	pro_sup_l	wrist_flex_l	wrist_dev_l
      1.88333333	      6.83375973	     -4.35247942	     92.76837817	      0.29899363	      1.06947841	      0.35080076	     -3.63405229	      1.44468506	    -13.73442489	      6.80747244	      0.11881281	     30.35351053	     16.45107026	      0.00000000	     -1.01480000	     -0.46213027	     -2.96545131	     11.29967806	      0.19721659	     27.79536635	      2.62657918	      0.00000000	      0.04023935	      0.09611616	      0.05849041	      0.07472849	      0.12783449	      0.06214606	      0.06610922	      0.23369683	      0.06214606	      0.04598955	      0.23369683	      0.05117911	      0.03736626	      0.19600007	      0.04752346	      0.02299276	      0.14888393	      0.04386781	      0.28742564	      1.08728522	      0.32530610	      0.00000000	      0.00000000	     16.61238215	     -3.44359360	     -9.79309960	      0.64223117	    -11.25612137	     38.85256520	     57.10203223	     37.22810213	      7.50918928	     12.75969157	     11.20663078	     -9.63029963	     59.75734595	     55.90400905	     62.08252684	     -6.80579752	      2.77392601
      1.90000000	      6.88218420	     -4.42211758	     92.87827289	      0.29877790	      1.06914431	      0.35068557	     -3.55622323	      1.49355341	    -13.96594674	      6.85404747	      0.11962570	     30.42537112	     16.54166351	      0.00000000	     -0.93075143	     -0.50919555	     -2.93906355	     11.35526531	      0.19818677	     27.96933586	      2.74591381	      0.00000000	      0.05415599	      0.10393720	      0.04437781	      0.10057309	      0.13823648	      0.04715142	      0.08897288	      0.25271292	      0.04715142	      0.06189488	      0.25271292	      0.03883058	      0.05028925	      0.21194875	      0.03605697	      0.03094473	      0.16099873	      0.03328336	      0.38683084	      1.17575844	      0.24681605	      0.00000000	      0.00000000	     16.60206556	     -3.65278168	     -9.79767708	      0.42586107	    -11.29188449	     38.48938852	     57.45668995	     35.25008230	      7.12554757	     13.73490913	     11.30961994	     -9.59655367	     60.47066251	     55.62883587	     62.59328618	     -7.70802725	      0.84162544
      1.91666667	      6.92558324	     -4.39404902	     92.86867591	      0.29867390	      1.06899870	      0.35060308	     -3.56053253	      1.51671948	    -14.16976996	      6.93013962	      0.12095375	     30.49171105	     16.76081274	      0.00000000	     -0.97676110	     -0.53887937	     -2.92069485	     11.37132624	      0.19846708	     28.04129969	      2.66853808	      0.00000000	      0.04850359	      0.11095949	      0.02956124	      0.09007601	      0.14757612	      0.03140881	      0.07968654	      0.26978690	      0.03140881	      0.05543475	      0.26978690	      0.02586608	      0.04504043	      0.22626859	      0.02401850	      0.02771495	      0.17187625	      0.02217093	      0.34645627	      1.25519594	      0.16441072	      0.00000000	      0.00000000	     16.66594764	     -3.59117879	     -9.70026862	      0.42080495	    -11.58620998	     39.14379016	     58.42947377	     29.11774205	      4.07500558	     14.56350886	     11.19660773	     -9.54134200	     60.36980903	     55.57856162	     63.27845866	     -7.89028150	      0.58991152
      1.93333333	      6.94971355	     -4.30888796	     92.77752940	      0.29873153	      1.06900326	      0.35041686	     -3.70859135	      1.57025087	    -13.72876052	      6.80150846	      0.11870872	     30.42187224	     16.37187428	      0.00000000	     -1.14479061	     -0.55528300	     -3.04093877	     11.26643984	      0.19663647	     28.08100215	      2.77042587	      0.00000000	      0.03491545	      0.11586310	      0.03660300	      0.06484148	      0.15409792	      0.03889069	      0.05736259	      0.28170953	      0.03889069	      0.03990487	      0.28170953	      0.03202763	      0.03242249	      0.23626803	      0.02973994	      0.01995069	      0.17947194	      0.02745225	      0.24939756	      1.31066652	      0.20357491	      0.00000000	      0.00000000	     16.66920194	     -3.54842943	     -9.65187418	      0.38348803	    -11.62462091	     38.98926941	     58.55186521	     29.07858195	      4.20536674	     14.41048187	     11.28715650	     -9.52710086	     60.71042291	     55.45516964	     63.24879988	     -7.90239358	      0.32789074
      1.95000000	      6.94238358	     -4.37169576	     92.81394798	      0.29862484	      1.06885953	      0.35031942	     -3.60799014	      1.53098843	    -13.95904613	      6.91397359	      0.12067160	     30.53141035	     16.60606084	      0.00000000	     -1.06633574	     -0.55258359	     -3.19348548	     11.27515698	      0.19678861	     28.23971916	      3.14799403	      0.00000000	      0.04872407	      0.11388426	      0.03312784	      0.09048547	      0.15146607	      0.03519833	      0.08004877	      0.27689820	      0.03519833	      0.05568674	      0.27689820	      0.02898686	      0.04524517	      0.23223279	      0.02691637	      0.02784093	      0.17640673	      0.02484588	      0.34803116	      1.28828157	      0.18424710	      0.00000000	      0.00000000	     16.56464556	     -3.56215547	     -9.75989875	      0.39625517	    -11.76354500	     39.38071786	     59.12276965	     23.57583488	      2.14480086	     15.24817809	     11.25927691	     -9.47295779	     60.53284588	     55.34871417	     65.69766547	     -7.57770607	      0.81840125
      1.96666667	      6.93351370	     -4.32723249	     92.64973849	      0.29877705	      1.06897482	      0.35025996	     -3.62497443	      1.49877020	    -13.83440392	      6.96695455	      0.12159630	     30.55241995	     16.66220190	      0.00000000	     -1.18913888	     -0.50935749	     -3.23384263	     11.09886671	      0.19371177	     28.35023397	      3.19041674	      0.00000000	      0.04668126	      0.11143291	      0.11290185	      0.08669177	      0.14820578	      0.11995822	      0.07669264	      0.27093799	      0.11995822	      0.05335201	      0.27093799	      0.09878912	      0.04334822	      0.22723400	      0.09173275	      0.02667367	      0.17260958	      0.08467639	      0.33343957	      1.26055141	      0.62792622	      0.00000000	      0.00000000	     16.48796684	     -3.64158357	    -10.12416089	      0.31638611	    -11.71144042	     38.96543342	     58.89045020	     23.70311525	      2.96345007	     15.49503378	     11.76888740	     -9.43810347	     61.55837088	     55.16872408	     65.75380801	     -7.57392886	      1.16430070
      1.98333333	      6.92837626	     -4.25340259	     92.82905071	      0.29858925	      1.06909808	      0.35030080	     -3.73429886	      1.51658648	    -14.02581607	      6.93146635	      0.12097691	     30.55148906	     16.67817768	      0.00000000	     -1.22227982	     -0.56014160	     -3.54747007	     11.09633946	      0.19366766	     28.68654782	      4.13511386	      0.00000000	      0.03999310	      0.10208715	      0.13099099	      0.07427119	      0.13577591	      0.13917793	      0.06570466	      0.24821470	      0.13917793	      0.04570811	      0.24821470	      0.11461712	      0.03713759	      0.20817612	      0.10643018	      0.02285206	      0.15813300	      0.09824325	      0.28566671	      1.15483028	      0.72853261	      0.00000000	      0.00000000	     16.51436843	     -3.71045183	    -10.77238737	      0.40330702	    -11.70973045	     39.10108318	     58.75849336	     22.58917052	      2.84617700	     15.46407243	     12.09251517	     -9.40240565	     61.84415267	     55.10452869	     66.94135912	     -7.11020207	      2.36024677
      2.00000000	      6.94359697	     -4.14883131	     92.85912676	      0.29848284	      1.06928214	      0.35043481	     -3.83283954	      1.53100398	    -14.07667762	      6.94996678	      0.12129980	     30.55843851	     16.71738890	      0.00000000	     -1.37851591	     -0.52165164	     -3.08965230	     10.90089888	      0.19025658	     28.68665693	      3.77479291	      0.00000000	      0.02801083	      0.09824175	      0.20009209	      0.05201891	      0.13066152	      0.21259784	      0.04601899	      0.23886498	      0.21259784	      0.03201357	      0.23886498	      0.17508058	      0.02601085	      0.20033457	      0.16257482	      0.01600539	      0.15217647	      0.15006907	      0.20007854	      1.11133029	      1.11285217	      0.00000000	      0.00000000	     16.68804386	     -3.76609471	    -11.16696967	      0.51910864	    -11.78173111	     39.27346242	     58.44153700	     23.24795204	      3.42397369	     14.87054325	     12.70028394	     -9.30363451	     62.81634242	     54.86603395	     66.85147913	     -6.94254279	      2.84596006
      2.01666667	      6.99681290	     -4.13848440	     92.62617730	      0.29893511	      1.06930104	      0.35036082	     -3.93088422	      1.67628036	    -12.61453103	      6.67499113	      0.11650057	     30.22355577	     15.26495460	      0.00000000	     -1.41230200	     -0.55122869	     -3.04389425	     10.85991070	      0.18954120	     28.67183672	      3.52927346	      0.00000000	      0.03046303	      0.09961409	      0.29959889	      0.05657290	      0.13248675	      0.31832382	      0.05004772	      0.24220171	      0.31832382	      0.03481620	      0.24220171	      0.26214903	      0.02828797	      0.20313306	      0.24342410	      0.01740658	      0.15430223	      0.22469917	      0.21759441	      1.12685456	      1.66627913	      0.00000000	      0.00000000	     17.22481303	     -3.68356460	    -11.11367687	      0.61510589	    -11.91613764	     39.59690099	     58.26063040	     24.95672625	      3.67597986	     13.98921394	     13.06505456	     -9.24659913	     63.46629300	     54.77702408	     65.53508975	     -6.80189496	      3.21331229
